# xmcd
#
# Track frame offsets:
# 150
# 11925
# 24422
# 35750
# 47297
# 63730
# 76707
# 90735
# 103242
# 113730
# 131895
# 148620
# 156737
# 168605
# 179277
# 192634
# 206337
# 219975
# 232832
# 246610
# 262917
# 278947
#
# Disc length: 3901 seconds
#
#
# Revision: 4
# Processed by: cddbd v1.5.2PL0 Copyright (c) Steve Scherf et al.
# Submitted via: FreeRIP 2.945 
#
DISCID=460f3b16
DTITLE=Johnny Cash - Pure Gold
DYEAR=1995
DGENRE=Country
TTITLE0=Ring of Fire
TTITLE1=Folsom Prison Blues (live)
TTITLE2=San Quentin (live)
TTITLE3=I Walk The Line
TTITLE4=A Boy Named Sue (live)
TTITLE5=Man In Black
TTITLE6=Orange Blossom Special
TTITLE7=Jackson
TTITLE8=Bonanza
TTITLE9=One Piece At A Time
TTITLE10=(Ghost) Riders In The Sky
TTITLE11=Five Feet High And Rising
TTITLE12=Flesh And Blood
TTITLE13=Daddy Sang Bass
TTITLE14=Singin' In Vietnam Talking Blues
TTITLE15=It Aint' Me Babe
TTITLE16=Don't Take Your Guns To Town
TTITLE17=Wanted Man
TTITLE18=Oney
TTITLE19=The Baron
TTITLE20=Johnny 99
TTITLE21=Highwayman
EXTD=
EXTT0=
EXTT1=
EXTT2=
EXTT3=
EXTT4=
EXTT5=
EXTT6=
EXTT7=
EXTT8=
EXTT9=
EXTT10=
EXTT11=
EXTT12=
EXTT13=
EXTT14=
EXTT15=
EXTT16=
EXTT17=
EXTT18=
EXTT19=
EXTT20=
EXTT21=
PLAYORDER=
